<?xml version="1.0" encoding="UTF-8"?><svg xmlns="http://www.w3.org/2000/svg" viewBox="0 0 91.28 103.72" fill="currentColor"><path d="m68.11 17.65c-0.44-0.02-0.88-0.04-1.33-0.04-8.05 0-15.13 4.11-19.3 10.33-2.16-16.68 4.39-26.21 4.39-26.21l-4.78-1.73c-5.39 9.42-4.63 20.92-3.48 27.67-4.18-6.07-11.17-10.06-19.11-10.06-0.45 0-0.89 0.02-1.33 0.04-42.93 1.71-18.37 86.07 10.6 86.07 5.02 0 9.4-2.66 11.86-6.63 2.46 3.98 6.85 6.63 11.86 6.63 28.99 0 53.54-84.36 10.62-86.07zm-26.89 47.17c-0.98 1.67-3.13 2.22-4.8 1.24s-2.22-3.13-1.24-4.8c2.11-3.57 6.78-4.59 6.78-4.59s1.37 4.58-0.74 8.15zm13.64 1.24c-1.67 0.98-3.82 0.43-4.8-1.24-2.11-3.57-0.74-8.15-0.74-8.15s4.67 1.02 6.78 4.59c0.99 1.66 0.43 3.81-1.24 4.8z"/></svg>
