<?xml version="1.0" encoding="UTF-8"?>
<svg xmlns="http://www.w3.org/2000/svg" viewBox="0 0 32 32" stroke="none">
    <path d="M0 0h32v32H0z" fill="#144239" />
    <path d="M32 10.7s-.4.1-1.9.3c-1.5.1-4.1-.5-4.8.8-.7 1.3 1.2 1.5 1.7 2.9.6 1.3.0 2.2-.6 3.2-.6.9-1.3 1.3-1.4 3.0-.1 1.7.1 2.3-.3 3.3-.4 1-.3 1.2-1.7 1.8-1.4.7-.6.8-1.7.8-1.0-0-1.1-1-2.1-2.1-1-1.1-1.3-1.5-2.8-1.4-1.6.1-1.2 1-1.6 2.2-.4 1.2.1 1.6-.4 2.4-.5.8-1.2.5-2.2 1-1 .5-1.5.6-1.7 1.9-.2 1.3.1 1.2-0 1.2H0V0h32z" fill="#807c5e" />
    <path d="M31 2.5c-7.0.3-5.5 2.8-9 4.7-3.5 1.9-2.9 5-5 7.4-2 2.4-4.7 2.9-8.4 5.8-3.8 2.9-3.9 5.9-4 7.7-.2 1.8.1 3.8.1 3.8H0V0h32v2.5" fill="#354d0f" />
</svg>
