<?xml version="1.0" encoding="UTF-8"?><svg xmlns="http://www.w3.org/2000/svg" viewBox="0 0 40 40" fill="currentColor"><g transform="translate(0,-257)"><path d="m9.1648 289.41c-2.8805 0.67814-4.0527 4.3337-4.0527 4.3337s2.234 2.861 5.1178 2.1869c2.8838-0.67413 5.3289-4.6307 5.3289-4.6307s-3.5135-2.5641-6.394-1.89z"/><path d="m13.73 282.96c-2.9039 0.51363-4.2001 4.105-4.2001 4.105s2.1202 2.9814 5.0241 2.4638c2.9039-0.51764 5.4829-4.3498 5.4829-4.3498s-3.403-2.7367-6.3069-2.219z"/><path d="m19.169 276.69c-2.9341 0.15649-4.5418 3.5673-4.5418 3.5673s1.8556 3.2102 4.7863 3.0657c2.9307-0.14437 5.8346-3.6355 5.8346-3.6355s-3.1484-3.154-6.0791-2.9975z"/><path d="m26.079 271.86c-2.9341-0.17255-4.803 3.0376-4.803 3.0376s1.591 3.4228 4.525 3.6114c2.9341 0.18859 6.0925-2.9614 6.0925-2.9614s-2.8838-3.5111-5.8145-3.6877z"/><path d="m31.676 266.74c-2.9073 0.4775-4.247 4.0488-4.247 4.0488s2.0934 3.0055 5.0006 2.528c2.9073-0.47751 5.5332-4.2575 5.5332-4.2575s-3.3762-2.8009-6.2868-2.3193z"/><path d="m6.6829 288.24c-0.036838 3.5191-2.847 5.5495-2.847 5.5495s-2.7465-2.1187-2.7096-5.6178c0.036838-3.4991 2.8503-7.0985 2.8503-7.0985s2.7465 3.6516 2.7063 7.1667z"/><path d="m11.462 281.67c-0.42537 3.5031-3.4197 5.056-3.4197 5.056s-2.4919-2.532-2.0666-6.019c0.42537-3.487 3.6039-6.5848 3.6039-6.5848s2.2943 4.0689 1.8823 7.5479z"/><path d="m16.952 275.61c-1.0249 3.2984-4.2269 4.0849-4.2269 4.0849s-1.9929-3.1058-0.96797-6.4203c1.0249-3.3145 4.6891-5.5335 4.6891-5.5335s1.5307 4.5745 0.50576 7.8689z"/><path d="m23.396 270.64c-1.4402 3.0657-4.7059 3.2423-4.7059 3.2423s-1.5642-3.4389-0.11722-6.5006c1.4469-3.0617 5.359-4.5945 5.359-4.5945s0.90433 4.7872-0.5359 7.8528z"/><path d="m29.98 265.56c-1.7752 2.8089-5.0241 2.4478-5.0241 2.4478s-1.1622-3.6636 0.61294-6.4645c1.7752-2.8008 5.8078-3.6836 5.8078-3.6836s0.37848 4.8955-1.3967 7.7004z"/><path transform="matrix(.26458 0 0 .26458 0 257)" d="m126.71 130.91c-10.496 0.11875-17.127 11.506-17.127 11.506s0.99506 2.1131 2.8906 4.6719h34.748c1.5333-1.286 2.4922-2.2148 2.4922-2.2148s-10.9-13.27-21.977-13.938c-0.34655-0.02038-0.68876-0.02922-1.0274-0.02539z"/><path transform="matrix(.26458 0 0 .26458 0 257)" d="m152.02 111.38c-1.0503-0.02851-2.0976 0.0325-3.1289 0.20312-10.988 1.8047-16.051 15.303-16.051 15.303s7.9123 11.359 18.9 9.5547c0.2669-0.04384 0.53135-0.10198 0.79687-0.16016v-24.871c-0.17259-0.00946-0.34512-0.02462-0.51758-0.0293z"/><path transform="matrix(.26458 0 0 .26458 0 257)" d="m65.375 139.51s-3.5011 3.4297-6.9766 8.6445h10.859c-1.8993-5.1089-3.8828-8.6445-3.8828-8.6445z"/><path transform="matrix(.26458 0 0 .26458 0 257)" d="m91.326 115.36s-13.849 8.3868-17.723 20.914c-1.1683 3.7781-1.2875 7.4782-0.90039 10.812h19.812c0.2624-0.63489 0.50753-1.294 0.72266-1.9863 3.8737-12.451-1.9121-29.74-1.9121-29.74z"/><path d="m31.113 290.43c-1.4402 3.0657-4.7059 3.2423-4.7059 3.2423s-1.5642-3.4389-0.11722-6.5006c1.4469-3.0617 5.359-4.5945 5.359-4.5945s0.90433 4.7872-0.5359 7.8528z"/><path d="m37.697 285.35c-1.7752 2.8089-5.0241 2.4478-5.0241 2.4478s-1.1622-3.6636 0.61294-6.4645c1.7752-2.8008 5.8078-3.6836 5.8078-3.6836s0.37848 4.8955-1.3967 7.7004z"/></g></svg>
