<?xml version="1.0" encoding="UTF-8"?><svg xmlns="http://www.w3.org/2000/svg" viewBox="0 0 92.34 107.35" fill="currentColor"><path d="M92.33,34.44C91.37,14,56.19-9.74,32.05,4.16S.42,23.53,0,34.44C-.37,44.59,14.4,51.77,32.24,54.71c-6.16,13.05-7.32,18.23,3.92,17.47l1.61-.1A49.74,49.74,0,0,1,30.93,92.9c-10.36,17.12,28.82,19.62,29,4.3,0-6.41-1.83-17.31-3.46-25.55h.13c12.7.13,7.77-7,3.84-15.94C78.23,54,92.93,47.32,92.33,34.44Zm-76.88-.33a2.78,2.78,0,0,1-.69.72A2.23,2.23,0,0,1,12,34.5a2.71,2.71,0,0,1-.56-2.79c.28-.76,2.15-1.64,2.9-2,1.08-.48,1.84-.22,2,1.21A4.93,4.93,0,0,1,15.45,34.11Zm10-14.88a2.07,2.07,0,0,1-.56-2.65,4.49,4.49,0,0,1,2.25-1.88c1.25-.57,4.51-2.95,5.94-1.94,1.83,1.29-.84,4.66-2,5.61a6,6,0,0,1-4.66,1.16A2.81,2.81,0,0,1,25.46,19.23Zm6.78,27.36c-1.61-1.59.47-4,1.86-4.33s3.19.36,3.35,1.74C37.9,47.83,33.86,48.18,32.24,46.59Zm9.4-17a10.43,10.43,0,0,1-5.34,4.05c-2.65,1-5.84,1.27-8.14-.37a3.7,3.7,0,0,1-1.32-1.56,3.65,3.65,0,0,1,.53-3.32c1.29-1.91,3.6-3.21,5.39-4.6,1.28-1,2.65-2.4,4.36-2.55C41.77,20.81,43.8,26,41.64,29.56ZM45.29,6.25C45.66,5,47.26,4.8,49.14,5s3.68.64,3.52,2.11-2,2.33-4.64,1.51S45,7.27,45.29,6.25ZM57.7,37.64a3.5,3.5,0,0,1-2.77,2.79,7.71,7.71,0,0,1-3.9.15A3.72,3.72,0,0,1,48.31,38a5,5,0,0,1,.4-2.77c.59-1.56,2.9-4.77,5-3.8a3.91,3.91,0,0,1,.78.55c.65.55,1.3,1.09,1.95,1.65A3.84,3.84,0,0,1,57.7,37.64Zm2-20.76a3.37,3.37,0,0,1,1.41-4.94,4.77,4.77,0,0,1,3.1,0,14.37,14.37,0,0,1,2.84,1.39l1.38.81a4.89,4.89,0,0,1,1.91,1.63,3.08,3.08,0,0,1-1.08,3.84,5.42,5.42,0,0,1-4.21.66A8.78,8.78,0,0,1,59.72,16.88Zm6.89,17.51c-1.48-.85-3.29-5.28-1.23-6.44a1.75,1.75,0,0,1,1.7.2,4.86,4.86,0,0,1,2.24,5,2.17,2.17,0,0,1-.4,1A1.85,1.85,0,0,1,66.61,34.39Zm6.62,12.93a5.86,5.86,0,0,1-4.17.46A2.49,2.49,0,0,1,68,47.22a1.22,1.22,0,0,1-.38-1.13,1.94,1.94,0,0,1,.56-.8,9.91,9.91,0,0,0,1.19-1.67,2.57,2.57,0,0,1,2.51-.79,5.39,5.39,0,0,1,1.89.53,2.14,2.14,0,0,1,1.15,1.52A2.62,2.62,0,0,1,73.23,47.32ZM84.7,36.21a3.35,3.35,0,0,1-4.62-.72c-.76-1.18-.86-2.77-1.25-4.1-.21-.74-1-2-.85-2.78.41-2.85,4-.95,5.29.07A8.32,8.32,0,0,1,85.8,31.5,4,4,0,0,1,84.7,36.21Z"/></svg>
