<?xml version="1.0" encoding="UTF-8"?><svg xmlns="http://www.w3.org/2000/svg" viewBox="0 0 21.245 18.985" fill="currentColor"><g transform="translate(-68.728 -76.808)"><g transform="rotate(45 77.695 86.742)"><rect x="76.418" y="80.591" width="2.6727" height="17.332"/><rect x="75.586" y="75.524" width="4.3042" height="4.6056"/><path d="m79.955 76.093v2.2384s1.1682-0.18097 4.0827 0.42344c1.9755 0.40969 4.3112 2.4915 4.3112 2.4915s-0.09192-2.3461-4.4079-4.4944c-1.7055-0.84897-3.986-0.65884-3.986-0.65884z"/><path d="m75.435 76.107 0.48443 1.7205s2.7816 1.3299-0.64216 0.21002c-0.05285-0.01729 0.16648-0.04637 0 0-1.0291-0.29808-1.1198-0.12984-1.0052-1.6893 2.2815-0.50788 1.163-0.24123 1.163-0.24123z"/></g></g></svg>
