<?xml version="1.0" encoding="UTF-8"?><svg xmlns="http://www.w3.org/2000/svg" viewBox="0 0 25.877 23.683" fill="none" stroke="currentColor" stroke-width="2.5"><g transform="translate(-102.31 -106.6)"><path d="m114.15 119.54c0.55432 0.36481-0.21827 0.9272-0.60633 0.92132-1.0516-0.0159-1.4789-1.2706-1.2363-2.134 0.43388-1.5443 2.2741-2.0942 3.6616-1.5513 2.0363 0.79674 2.7242 3.2898 1.8663 5.1893-1.1434 2.5317-4.3098 3.3602-6.717 2.1812-3.0292-1.4836-3.9992-5.3317-2.4962-8.2446 1.8204-3.5279 6.3547-4.6401 9.7723-2.8112 4.0274 2.1553 5.282 7.3784 3.1262 11.3-2.489 4.5275-8.4026 5.9247-12.828 3.4412-5.028-2.822-6.5679-9.427-3.7562-14.355 3.1544-5.5287 10.452-7.2115 15.883-4.0711 6.0296 3.4864 7.8554 11.477 4.3861 17.411"/><ellipse cx="113.59" cy="119.8" rx=".70158" ry=".73499"/></g></svg>
