<?xml version="1.0" encoding="UTF-8"?><svg xmlns="http://www.w3.org/2000/svg" viewBox="0 0 22.35 21.682" fill="currentColor"><g transform="translate(-71.127 -38.417)"><circle cx="87.765" cy="56.825" r="3.1738"/><circle cx="77.909" cy="56.792" r="3.1738"/><path transform="scale(.26458)" d="m273.5 194.95v18.688h7.2988a13.713 13.461 0 0 1 13.662-12.451 13.713 13.461 0 0 1 13.672 12.451h10.035a13.713 13.461 0 0 1 13.67-12.576 13.713 13.461 0 0 1 13.68 12.576h7.0274v-18.688z"/><path transform="scale(.26458)" d="m273.5 169.06v25.885h55.055v-25.885zm24.359 3.9922h14.107v13.75h-14.107z"/><rect x="71.227" y="38.517" width="22.15" height="5.6461"/><rect x="87.289" y="47.819" width="6.0476" height=".59059"/><rect x="88.364" y="48.374" width=".59059" height="2.764"/><rect x="90.159" y="48.374" width=".59059" height="2.764"/><rect x="91.931" y="48.327" width=".59059" height="2.764"/><rect x="79.262" y="46.218" width="2.7562" height="2.6727"/></g></svg>
