<?xml version="1.0" encoding="UTF-8"?><svg xmlns="http://www.w3.org/2000/svg" viewBox="0 0 22.815 23.848" fill="currentColor"><g transform="translate(-175.95 -37.553)"><rect x="177.93" y="59.389" width="18.595" height="1.8918"/><path transform="scale(.26458)" d="m666.41 164.68v5.5586c7.5414 1.4881 24.486 4.9648 24.486 4.9648l4.9102 9.6417 14.733-3.2132 6.1599 3.8384 7.6786-6.5184-4.6423-11.16 5.6253 1.8747 4.6426 10.537-9.7321 7.9459 6.1599 4.0181-0.62471 11.607 7.7681 8.5712-4.286 1.9629-8.0352-9.1055 0.89258-10.537-12.32-8.3926-12.5 2.6797 4.1069 7.0524-3.572 5.7143 5.358 5.8937-3.0374 3.4821-7.6777-8.75 3.7497-6.2508-8.6599-16.964-21.184-3.572v44.783h83.461v-55.662z"/><rect x="177.93" y="40.5" width="18.595" height="1.8918"/><rect x="176.62" y="37.682" width="21.207" height="1.8918"/></g></svg>
