<?xml version="1.0" encoding="UTF-8"?>
<svg xmlns="http://www.w3.org/2000/svg" viewBox="0 0 50 50">
<g transform="translate(0,-247)">
<path d="m22.738 248.15h4.6994l0.75912 5.026a19.084 19.084 0 0 1 3.6136 0.9682l3.1705-3.9731 4.0697 2.3497-1.8556 4.7322a19.084 19.084 0 0 1 2.6454 2.6454l4.7322-1.8556 2.3497 4.0697-3.9731 3.1705a19.084 19.084 0 0 1 0.9682 3.6136l5.026 0.75912v4.6994l-5.026 0.75912a19.084 19.084 0 0 1-0.9682 3.6136l3.9731 3.1705-2.3497 4.0697-4.7322-1.8556a19.084 19.084 0 0 1-2.6454 2.6454l1.8556 4.7322-4.0697 2.3497-3.1705-3.9731a19.084 19.084 0 0 1-3.6136 0.9682l-0.75912 5.026h-4.6994l-0.75912-5.026a19.084 19.084 0 0 1-3.6136-0.9682l-3.1705 3.9731-4.0697-2.3497 1.8556-4.7322a19.084 19.084 0 0 1-2.6454-2.6454l-4.7322 1.8556-2.3497-4.0697 3.9731-3.1705a19.084 19.084 0 0 1-0.9682-3.6136l-5.026-0.75912v-4.6994l5.026-0.75912a19.084 19.084 0 0 1 0.9682-3.6136l-3.9731-3.1705 2.3497-4.0697 4.7322 1.8556a19.084 19.084 0 0 1 2.6454-2.6454l-1.8556-4.7322 4.0697-2.3497 3.1705 3.9731a19.084 19.084 0 0 1 3.6136-0.9682zm2.3497 16.699a7.1566 7.1566 0 0 0 0 14.313 7.1566 7.1566 0 0 0 0-14.313"/>
</g>
</svg>
