<?xml version="1.0" encoding="UTF-8"?>
<svg xmlns="http://www.w3.org/2000/svg" viewBox="0 0 36.178 19.512">
<g transform="translate(-140.19 -47.87)">
<path transform="scale(.26458)" d="m580 181.45-22.857 2.8555s-5.7134 12.662-8.8516 17.688c1.9582 3.0976 6.0293 9.2441 6.0293 9.2441l10.859 3.6621 1.2637 4.7969-14.648-6.6914-5.6406-8.5645c-2.9053 2.2891-11.38 10.473-14.369 13.795-3.2143 3.5714 0 12.5 0 12.5l11.787 13.928 12.32 0.98242 10.18-9.0176 11.316 1.4863 3.3262 8.9609 27.857-2.4121v-11.428l8.2129-12.143 13.93-6.7871-15-16.785-10.726 0.66546 3.755 5.0963-0.0644 7.3867-4.6719 6.377-1.0098-3.4726 2.9369-3.9358 0.125-5.6191-4.6323-5.7829z"/>
<path d="m169.27 56.908-5.1282 2.4889-2.0713 2.5057-0.25057 4.1427 2.6894 0.93544 4.8443 0.26727 2.5056-1.2361 2.6192 0.03341 1.7481-2.4224-1.3938-4.6538-3.8742-2.2679z"/>
<path d="m152.7 65.702-0.67327-1.9253-1.8899-0.2008-2.1734 1.8426-0.0591 0.86226 1.571 0.72052 2.2679-0.04725z"/>
</g>
</svg>
