<?xml version="1.0" encoding="UTF-8"?>
<svg xmlns="http://www.w3.org/2000/svg" viewBox="0 0 120 120">
<path d="m115.52 49.97c-0.92-0.23-1.9-0.11-2.83-0.31s-1.89-0.93-1.82-1.87c0.08-1.04 1.33-2.06 0.71-2.91-0.21-0.29-0.59-0.41-0.94-0.45-1.59-0.19-3.09 0.8-4.69 0.89-0.58 0.03-1.28-0.13-1.49-0.68-0.12-0.32-0.05-0.67 0.01-1 0.18-1.01 0.51-3.04-0.18-3.53-0.46-0.33-1.93 0.72-2.13 0.82-0.97 0.47-1.75 1.08-2.56 1.66-0.28-0.57-0.75-1.13-0.92-1.75-0.31-1.17 0.6-2.34 1.64-2.96s2.26-0.91 3.25-1.61c0.21-0.15 0.42-0.32 0.54-0.55 0.55-1.07-1-1.97-1.5-3.07-0.66-1.43 0.6-2.97 1.72-4.07 1.13-1.1 2.3-2.75 1.51-4.1-0.94-1.59-4.26-1.59-4.65-3.4-0.2-0.93 0.7-3.17-0.02-4.83-0.38-0.87-1.4-1.39-2.34-1.5-1.29-0.16-2.6 0.89-3.81 0.42-1.73-0.66-1.38-3.55-2.97-4.49-1.36-0.8-3 0.38-4.1 1.51s-2.64 2.38-4.07 1.72c-1.09-0.5-2-2.05-3.07-1.5-0.23 0.12-0.4 0.32-0.55 0.54-0.7 0.99-0.99 2.21-1.61 3.25s-1.79 1.95-2.96 1.64c-1.04-0.28-1.94-1.45-2.94-1.06-0.24 0.09-0.43 0.27-0.6 0.48-0.12-0.11-0.26-0.21-0.37-0.33-0.89-0.94-1.41-2.38-0.89-3.57 0.34-0.77 1.03-1.31 1.55-1.98 0.52-0.66 0.84-1.64 0.34-2.32-0.22-0.3-0.57-0.48-0.9-0.64-1.01-0.48-2.06-0.89-3.13-1.21-0.45-0.14-0.96-0.29-1.19-0.7-0.37-0.65 0.16-1.45 0.09-2.19-0.13-1.27-0.72-2.87-2.92-3.55-2.12-0.66-3.82-1.15-4.82-0.37-1.27 0.99-1.32 2.47-2 2.78-0.43 0.2-0.93 0.03-1.38-0.12-1.06-0.36-2.15-0.64-3.25-0.83-0.37-0.06-0.75-0.12-1.11 0-0.8 0.26-1.1 1.25-1.07 2.09 0.04 0.84 0.29 1.69 0.12 2.51-0.27 1.27-1.52 2.14-2.79 2.39s-2.59 0.01-3.87-0.17c-0.5-0.07-1.02-0.13-1.48 0.08-0.98 0.46-1.03 1.83-0.83 2.9s0.44 2.33-0.31 3.11c-0.98 1.01-2.71 0.32-4.07 0.71-0.34 0.1-0.68 0.29-0.84 0.6-0.09 0.18-0.12 0.38-0.11 0.58 0.01 1.18 0.88 2.15 1.48 3.16 0.6 1.02 0.87 2.52-0.08 3.22-0.73 0.54-1.9 0.36-2.46 1.08-0.33 0.43-0.3 1.04-0.13 1.55 0.35 1.03 1.2 1.8 1.76 2.74 0.56 0.93 0.75 2.3-0.09 2.99-0.58 0.48-1.45 0.44-2.08 0.84-1.05 0.67-1.06 2.28-0.42 3.35s1.72 1.79 2.63 2.64 1.71 2.03 1.5 3.26c-0.34 1.99-2.84 2.62-4.34 3.98-0.2 0.18-0.38 0.37-0.49 0.61-0.16 0.35-0.14 0.75-0.06 1.13 0.31 1.35 1.42 2.38 2.61 3.1s2.51 1.21 3.64 2.01c0.22 0.16 0.45 0.34 0.54 0.6 0.18 0.51-0.25 1.03-0.69 1.32s-0.99 0.52-1.25 0.99c-0.33 0.6-0.05 1.38 0.45 1.84 0.51 0.46 1.18 0.67 1.84 0.87 0.97 0.29 2.12 0.32 3.39 0.66 0.42 1.98 0.68 4.27 0.28 5.99-13.17-10.04-29.28-11.5-38.09-2.7-19.83 20.42 11.24 35.99-4.6 54.93 19.21-15.66 34.24 14.96 54.66-4.87 9.23-9.23 7.18-26.49-4.21-39.97 1.25-0.64 2.96-1.29 4.62-1.16 1.02 2.5 2.4 5.3 3.4 6.4 0.28 0.3 0.63 0.62 1.04 0.56 0.73-0.1 0.78-1.13 1.18-1.74 0.45-0.69 1.44-0.83 2.22-0.57s1.41 0.84 2.04 1.37c1.1 0.93 2.29 1.77 3.53 2.5 0.35 0.21 0.73 0.41 1.14 0.42 1.01 0.03 1.66-1.07 1.88-2.05s0.28-2.09 0.99-2.8c0.76-0.76 2.02-0.77 3.02-0.37s1.81 1.14 2.68 1.77c1.32 0.95 2.79 1.68 4.35 2.13 0.38 0.11 0.89 0.17 1.1-0.17 0.11-0.18 0.09-0.4 0.07-0.61-0.08-0.76-0.15-1.53-0.23-2.29-0.04-0.38-0.05-0.83 0.23-1.09 0.32-0.29 0.83-0.17 1.23-0.01 2.46 0.98 4.55 2.85 7.14 3.45 0.39 0.09 0.81 0.15 1.18-0.02 0.96-0.43 0.77-1.83 0.4-2.81s-0.65-2.34 0.26-2.86c0.28-0.16 0.61-0.19 0.94-0.2 2.09-0.05 4.26 0.7 6.24 0.01 0.32-0.11 0.66-0.3 0.73-0.64 0.05-0.24-0.07-0.48-0.18-0.7-0.42-0.8-0.88-1.59-1.35-2.36 2.79-0.93 5.84-0.19 8.78-0.36 0.23-0.01 0.49-0.06 0.59-0.26 0.08-0.16 0.02-0.35-0.05-0.51-0.39-0.95-0.93-1.84-1.6-2.61-0.22-0.26-0.47-0.52-0.52-0.85-0.09-0.58 0.42-1.07 0.93-1.34 1.42-0.74 3.22-0.66 4.48-1.64 0.28-0.22 0.54-0.51 0.58-0.87 0.1-1.04-1.5-1.28-2.1-2.13-0.54-0.78-0.38-1.85 0.32-2.5 0.94-0.86 1.84-1.44 2.63-2.44 0.25-0.31 0.49-0.64 0.57-1.03 0.19-0.95-0.72-1.77-1.65-2zm-111.56 18.33c1.38-2.27 3.12-4.11 3.12-4.11-1.41 5.62 2.27 15.43 8.06 23.48 0 0-9.11-5.35-11.18-19.37zm60.31-16.91 2.1-1.89c1.39-1.28 2.77-2.57 4.13-3.88 2.74-2.61 5.38-5.33 8.07-8.01 2.68-2.68 5.33-5.4 7.95-8.14l7.91-8.2 0.41 0.37c-2.4 2.96-4.89 5.83-7.37 8.71-2.52 2.85-5.06 5.68-7.64 8.48-2.57 2.8-5.23 5.53-7.92 8.23-1.34 1.35-2.71 2.68-4.1 4l-2.1 1.94c-0.75 0.59-1.27 1.48-2.58 1.41l-0.58-0.68c0.12-1.32 1.04-1.68 1.72-2.34zm-13.86 6.8c0.78-2.11 1.58-4.22 2.25-6.37 1.43-4.27 2.56-8.65 3.58-13.04 1.04-4.39 1.82-8.85 2.43-13.33 0.63-4.48 1.05-9 1.16-13.52l0.37-0.01c0.23 4.56 0.01 9.12-0.36 13.66-0.42 4.54-1.03 9.07-1.89 13.56s-1.93 8.94-3.26 13.32c-0.62 2.2-1.37 4.37-2.12 6.53-0.35 1.09-0.78 2.15-1.2 3.22s-0.93 2.1-1.76 2.98l-1.24-0.53c0.04-2.44 1.35-4.32 2.04-6.47zm10.91 38.31s0.03 2.65-0.26 4.26c-8.95-1.98-16.51-12.33-16.51-12.33 12.98 11 16.77 8.07 16.77 8.07zm28.75-40.15c-4.39 0.65-8.71 1.66-12.96 2.85-4.26 1.18-8.43 2.67-12.48 4.38-2.03 0.86-4.02 1.79-6.02 2.68l-2.98 1.38c-0.5 0.22-0.97 0.5-1.51 0.65-0.54 0.14-1.12 0.22-1.84 0.07l-0.51-0.84c0.5-1.41 1.53-1.95 2.53-2.48 0.99-0.57 2.01-1.05 3.03-1.56 2.06-0.95 4.16-1.78 6.3-2.52 4.26-1.49 8.59-2.78 12.99-3.75 4.39-0.98 8.83-1.76 13.3-2.18 4.46-0.53 8.95-0.55 13.42-0.49v0.44c-4.46 0.28-8.89 0.64-13.27 1.37z"/>
</svg>
