<?xml version="1.0" encoding="UTF-8"?>
<svg xmlns="http://www.w3.org/2000/svg" viewBox="0 0 119.18 158.66">
<path d="M41.62,91.2c-5.78-7.37-19.58-26-25-33.31a145.68,145.68,0,0,1-11-16.41C3.16,37,1.84,31.87.06,27c-.16-.43.06-1,.15-2.12l3.37,6.76.51-.16L2.24,25.13c1.63-1.94,3.28-3.68,6.18-3.19.37.64.77,1.35,1.3,2.29,1.31-2.46,2.53-4.78,3.72-7,3.39,1.9,6.66,3.49,9.63,5.51a12.14,12.14,0,0,1,3.67,4.36c5.66,11,21.16,32.29,28.68,42,.14.19.45.25,1,.54,2.37-3.24,4.9-6.44,7.16-9.82,8.64-12.93,17.16-25.94,25.8-38.87,3.58-5.38,5.13-8,9-13.16a21.64,21.64,0,0,1,10-7.75L102.4,4.76l1,1.2a10.23,10.23,0,0,0,1.74-1c2.59-2.29,5.13-4.63,9.35-2.29-.57,1.74-.93,4-2,5.77s-2.89,3.25-3.88,5.48l5.17-4,5,1.15c.09,1.33.18,2.86.31,4.89-.39.46-1.08,1.29-1.76,2.14-.25.31-.7.88-.62,1,2.35,2.94-.89,4.11-2,5.69-8.1,11.65-14.31,20.43-22.53,32C85,67,77.78,77.13,70.36,87.56l3.4,4.34c8.9,11.4,21.34,28.9,30.14,40.37,2.44,3.19,5.07,6.38,5.7,10.74l-2.94-3.11a11.41,11.41,0,0,1-.15,7.46c-4.61.79-7-2.33-9.22-5.64l-.68.44,1.75,4.09c-.43,1.59-.87,3.23-1.42,5.23-2-1.58-5.15-.64-6.44-3.58-4.43.5-5-3.75-7.11-6-2.37-2.44-7.88-11.36-10.07-14-2.38-2.85-4.75-5.72-7.18-8.53-3.06-3.54-6.18-7-9.5-10.78-.76,1-1.41,1.77-2,2.6-5.38,7.33-10.81,14.62-16.08,22-2.23,3.13-4,6.55-6.22,9.72a29.54,29.54,0,0,1-4,4.48c-.23.23-1.14-.23-2.33-.51l-11.09,11.7c-.21-.12-.42-.24-.64-.35.09-.68.18-1.37.26-2l-5-1c-1.91-4.83,1.11-8,3.05-11.77-1.32,1.31-2.43,3.16-4,3.78s-3.85.14-6.11.14c.35-2.18.27-4.38,1.1-6.16s2.55-3.05,4.43-5.15l-4,1.21c1.37-1.91,2-3.25,3-4.15C20.6,121.3,31.29,107,41.34,92.09A4.09,4.09,0,0,0,41.62,91.2Z"/>
</svg>
